<mxfile host="app.diagrams.net" agent="Mozilla/5.0 (Windows NT 10.0; Win64; x64) AppleWebKit/537.36 (KHTML, like Gecko) Chrome/134.0.0.0 Safari/537.36" version="26.1.3">
  <diagram name="Page-1" id="5f0bae14-7c28-e335-631c-24af17079c00">
    <mxGraphModel dx="1050" dy="557" grid="1" gridSize="10" guides="1" tooltips="1" connect="1" arrows="1" fold="1" page="1" pageScale="1" pageWidth="1100" pageHeight="850" background="none" math="0" shadow="0">
      <root>
        <mxCell id="0" />
        <mxCell id="1" parent="0" />
        <mxCell id="2" value="Usuário" style="shape=umlActor;verticalLabelPosition=bottom;verticalAlign=top;" parent="1" vertex="1">
          <mxGeometry x="10" y="240" width="40" height="60" as="geometry" />
        </mxCell>
        <mxCell id="3" value="Aplicação Web" style="swimlane;horizontal=0;fillColor=#dae8fc;" parent="1" vertex="1">
          <mxGeometry x="100" y="220" width="160" height="100" as="geometry" />
        </mxCell>
        <mxCell id="4" value="Servidor de Aplicação" style="swimlane;horizontal=0;fillColor=#fff2cc;" parent="1" vertex="1">
          <mxGeometry x="360" y="140" width="220" height="260" as="geometry" />
        </mxCell>
        <mxCell id="5" value="Módulo de Inscrição" style="component" parent="4" vertex="1">
          <mxGeometry x="60" y="20" width="120" height="30" as="geometry" />
        </mxCell>
        <mxCell id="6" value="Módulo de Alocação" style="component" parent="4" vertex="1">
          <mxGeometry x="60" y="70" width="120" height="30" as="geometry" />
        </mxCell>
        <mxCell id="7" value="Módulo de Resultados" style="component" parent="4" vertex="1">
          <mxGeometry x="60" y="110" width="120" height="30" as="geometry" />
        </mxCell>
        <mxCell id="8" value="Módulo de Relatórios" style="component" parent="4" vertex="1">
          <mxGeometry x="60" y="160" width="120" height="30" as="geometry" />
        </mxCell>
        <mxCell id="9" value="Banco de Dados (SGBD)" style="cylinder;fillColor=#d5e8d4;" parent="1" vertex="1">
          <mxGeometry x="700" y="230" width="140" height="80" as="geometry" />
        </mxCell>
        <mxCell id="10" style="endArrow=block;" parent="1" target="3" source="2" edge="1">
          <mxGeometry relative="1" as="geometry" />
        </mxCell>
        <mxCell id="11" style="endArrow=block;" parent="1" target="4" source="3" edge="1">
          <mxGeometry relative="1" as="geometry" />
        </mxCell>
        <mxCell id="12" style="endArrow=block;" parent="1" target="9" source="4" edge="1">
          <mxGeometry relative="1" as="geometry" />
        </mxCell>
      </root>
    </mxGraphModel>
  </diagram>
</mxfile>
